<?xml version="1.0" encoding="UTF-8"?><svg id="uuid-22eca384-8ee0-4d2b-8527-8dea7afb574b" xmlns="http://www.w3.org/2000/svg" viewBox="0 0 799.97 800"><defs><style>.uuid-a0405d64-b31d-4e62-9d25-27c1ec5ba484{fill:#000;stroke-width:0px;}</style></defs><path class="uuid-a0405d64-b31d-4e62-9d25-27c1ec5ba484" d="M398.61,298.88c-55.6,0-100.67,45.07-100.67,100.67s45.07,100.67,100.67,100.67,100.67-45.07,100.67-100.67-45.07-100.67-100.67-100.67ZM398.61,450.35c-28.06,0-50.8-22.74-50.8-50.8s22.74-50.8,50.8-50.8,50.8,22.74,50.8,50.8-22.74,50.8-50.8,50.8Z"/><path class="uuid-a0405d64-b31d-4e62-9d25-27c1ec5ba484" d="M328.16,296.59l-104.65-74.36c-3.11-2.21-7.02,1.43-5.03,4.69l67.28,110.01c1.69,2.77,5.95,1.96,6.45-1.24,1.83-11.79,8.9-29.25,34.33-32.77,3.18-.44,4.23-4.49,1.61-6.34Z"/><path class="uuid-a0405d64-b31d-4e62-9d25-27c1ec5ba484" d="M369.26,518.8l21.42,126.57c.64,3.76,5.98,3.95,6.87.24l30.22-125.37c.77-3.19-2.84-5.57-5.49-3.64-9.64,7.03-26.96,14.33-47.39-1.14-2.56-1.94-6.16.18-5.62,3.34Z"/><path class="uuid-a0405d64-b31d-4e62-9d25-27c1ec5ba484" d="M270.4,369.94l-126.57,21.42c-3.76.64-3.95,5.98-.24,6.87l125.37,30.22c3.19.77,5.57-2.84,3.64-5.49-7.03-9.64-14.33-26.96,1.14-47.39,1.94-2.56-.18-6.16-3.34-5.62Z"/><path class="uuid-a0405d64-b31d-4e62-9d25-27c1ec5ba484" d="M428.81,280.31l-21.42-126.57c-.64-3.76-5.98-3.95-6.87-.24l-30.22,125.37c-.77,3.19,2.84,5.57,5.49,3.64,9.64-7.03,26.96-14.33,47.39,1.14,2.56,1.94,6.16-.18,5.62-3.34Z"/><path class="uuid-a0405d64-b31d-4e62-9d25-27c1ec5ba484" d="M515.69,333.95l74.36-104.65c2.21-3.11-1.43-7.02-4.69-5.03l-110.01,67.28c-2.77,1.69-1.96,5.95,1.24,6.45,11.79,1.83,29.25,8.9,32.77,34.33.44,3.18,4.49,4.23,6.34,1.61Z"/><path class="uuid-a0405d64-b31d-4e62-9d25-27c1ec5ba484" d="M526.83,429.49l126.57-21.42c3.76-.64,3.95-5.98.24-6.87l-125.37-30.22c-3.19-.77-5.57,2.84-3.64,5.49,7.03,9.64,14.33,26.96-1.14,47.39-1.94,2.56.18,6.16,3.34,5.62Z"/><path class="uuid-a0405d64-b31d-4e62-9d25-27c1ec5ba484" d="M478.25,501.39l104.65,74.36c3.11,2.21,7.02-1.43,5.03-4.69l-67.28-110.01c-1.69-2.77-5.95-1.96-6.45,1.24-1.83,11.79-8.9,29.25-34.33,32.77-3.18.44-4.23,4.49-1.61,6.34Z"/><path class="uuid-a0405d64-b31d-4e62-9d25-27c1ec5ba484" d="M287.8,463.17l-74.36,104.65c-2.21,3.11,1.43,7.02,4.69,5.03l110.01-67.28c2.77-1.69,1.96-5.95-1.24-6.45-11.79-1.83-29.25-8.9-32.77-34.33-.44-3.18-4.49-4.23-6.34-1.61Z"/><path class="uuid-a0405d64-b31d-4e62-9d25-27c1ec5ba484" d="M348.81,535.31l8.38,46.71c1.19,6.62-5.24,12.04-11.57,9.76l-46.39-16.75c-6.45-2.33-7.82-10.83-2.44-15.08l38.01-29.96c5.18-4.08,12.84-1.17,14.01,5.32Z"/><path class="uuid-a0405d64-b31d-4e62-9d25-27c1ec5ba484" d="M468.45,528.2l38.95,27.11c5.52,3.84,4.81,12.22-1.28,15.08l-44.64,20.96c-6.2,2.91-13.19-2.13-12.39-8.94l5.69-48.06c.78-6.55,8.25-9.91,13.66-6.14Z"/><path class="uuid-a0405d64-b31d-4e62-9d25-27c1ec5ba484" d="M549.28,447.02l46.71-8.38c6.62-1.19,12.04,5.24,9.76,11.57l-16.75,46.39c-2.33,6.45-10.83,7.82-15.08,2.44l-29.96-38.01c-4.08-5.18-1.17-12.84,5.32-14.01Z"/><path class="uuid-a0405d64-b31d-4e62-9d25-27c1ec5ba484" d="M542.16,336.95l27.11-38.95c3.84-5.52,12.22-4.81,15.08,1.28l20.96,44.64c2.91,6.2-2.13,13.19-8.94,12.39l-48.06-5.69c-6.55-.78-9.91-8.25-6.14-13.66Z"/><path class="uuid-a0405d64-b31d-4e62-9d25-27c1ec5ba484" d="M456.87,255.72l-8.38-46.71c-1.19-6.62,5.24-12.04,11.57-9.76l46.39,16.75c6.45,2.33,7.82,10.83,2.44,15.08l-38.01,29.96c-5.18,4.08-12.84,1.17-14.01-5.32Z"/><path class="uuid-a0405d64-b31d-4e62-9d25-27c1ec5ba484" d="M337.23,262.84l-38.95-27.11c-5.52-3.84-4.81-12.22,1.28-15.08l44.64-20.96c6.2-2.91,13.19,2.13,12.39,8.94l-5.69,48.06c-.78,6.55-8.25,9.91-13.66,6.14Z"/><path class="uuid-a0405d64-b31d-4e62-9d25-27c1ec5ba484" d="M257.1,348.53l-46.71,8.38c-6.62,1.19-12.04-5.24-9.76-11.57l16.75-46.39c2.33-6.45,10.83-7.82,15.08-2.44l29.96,38.01c4.08,5.18,1.17,12.84-5.32,14.01Z"/><path class="uuid-a0405d64-b31d-4e62-9d25-27c1ec5ba484" d="M264.22,458.6l-27.11,38.95c-3.84,5.52-12.22,4.81-15.08-1.28l-20.96-44.64c-2.91-6.2,2.13-13.19,8.94-12.39l48.06,5.69c6.55.78,9.91,8.25,6.14,13.66Z"/><path class="uuid-a0405d64-b31d-4e62-9d25-27c1ec5ba484" d="M554.09,229.56l21.49-13.14c1.2-.73,1.39-2.42.36-3.39-41.28-38.9-95.44-64.27-155.4-69.05-1.39-.11-2.51,1.13-2.28,2.5l4.18,24.69c.16.94.93,1.65,1.87,1.75,48.6,5.18,92.64,25.61,127.26,56.4.7.62,1.72.72,2.52.23Z"/><path class="uuid-a0405d64-b31d-4e62-9d25-27c1ec5ba484" d="M221.89,254.62l-13.34-21.81c-.76-1.24-2.51-1.39-3.45-.29-33.94,39.42-56.11,89.25-61.06,144.05-.13,1.39,1.12,2.53,2.5,2.3l24.79-4.19c.93-.16,1.64-.91,1.75-1.85,5.16-43.52,22.56-83.29,48.66-115.78.56-.7.63-1.67.16-2.44Z"/><path class="uuid-a0405d64-b31d-4e62-9d25-27c1ec5ba484" d="M384.27,170.68l5.93-24.61c.33-1.38-.76-2.71-2.18-2.65-60.9,2.76-116.29,26.71-158.93,64.67-1.03.91-.93,2.55.19,3.35l20.31,14.43c.79.56,1.86.51,2.6-.12,35.65-30.24,80.71-49.72,130.16-53.46.92-.07,1.69-.72,1.91-1.62Z"/><path class="uuid-a0405d64-b31d-4e62-9d25-27c1ec5ba484" d="M245.07,570l-21.46,13.13c-1.2.73-1.39,2.42-.36,3.38,41.48,39.29,96.05,64.88,156.5,69.55,1.39.11,2.51-1.13,2.28-2.5l-4.18-24.68c-.16-.94-.93-1.66-1.88-1.75-49.07-5.1-93.53-25.72-128.37-56.9-.7-.63-1.72-.72-2.52-.23Z"/><path class="uuid-a0405d64-b31d-4e62-9d25-27c1ec5ba484" d="M170.62,417.08l-24.64-5.94c-1.39-.33-2.72.76-2.65,2.19,2.87,56.07,23.7,107.39,56.88,148.31.89,1.1,2.59,1.03,3.41-.12l14.62-20.58c.54-.76.52-1.78-.05-2.52-25.72-33.69-42.28-74.74-45.96-119.45-.08-.92-.72-1.68-1.62-1.9Z"/><path class="uuid-a0405d64-b31d-4e62-9d25-27c1ec5ba484" d="M628.86,380.99l24.73,5.96c1.39.34,2.73-.77,2.65-2.2-3.18-54.31-23.24-104.09-55.01-144.16-.88-1.11-2.6-1.06-3.43.1l-14.66,20.64c-.53.75-.52,1.76.03,2.5,24.39,32.78,40.19,72.32,44.08,115.3.08.91.73,1.66,1.61,1.88Z"/><path class="uuid-a0405d64-b31d-4e62-9d25-27c1ec5ba484" d="M414.98,629.35l-5.93,24.6c-.33,1.38.75,2.71,2.17,2.65,63.81-2.78,121.57-28.84,165.01-69.9.98-.93.86-2.53-.24-3.31l-20.16-14.33c-.81-.58-1.91-.51-2.66.16-36.59,33.18-83.99,54.64-136.28,58.51-.92.07-1.7.72-1.91,1.62Z"/><path class="uuid-a0405d64-b31d-4e62-9d25-27c1ec5ba484" d="M582.78,538.91l13.51,22.09c.77,1.26,2.57,1.39,3.49.24,31.44-38.94,51.73-87.25,56.03-140.08.11-1.39-1.13-2.52-2.5-2.29l-24.7,4.18c-.94.16-1.65.92-1.75,1.87-4.51,41.58-20.19,79.8-43.96,111.62-.52.7-.57,1.64-.11,2.38Z"/><path class="uuid-a0405d64-b31d-4e62-9d25-27c1ec5ba484" d="M795.84,407.74c1.37.06,2.71.2,4.02.36.04-1.94.09-3.88.11-5.83.03-5.12-.07-10.22-.24-15.3-1.16.21-2.34.4-3.55.53-18.9,2.12-35.28-5.66-36.6-17.4-1.3-11.74,12.94-22.96,31.83-25.08,1.59-.17,3.15-.25,4.69-.29-.99-7.08-2.16-14.1-3.52-21.05-1.3.47-2.62.92-4,1.29-18.33,5.05-35.73-.08-38.87-11.46-3.13-11.39,9.19-24.71,27.52-29.75,1.7-.46,3.38-.82,5.06-1.11-2.12-6.86-4.44-13.64-6.92-20.34-1.31.74-2.65,1.45-4.07,2.09-17.32,7.86-35.31,5.51-40.19-5.24-4.88-10.75,5.21-25.83,22.53-33.68,1.66-.75,3.33-1.39,4.99-1.95-3.19-6.44-6.55-12.79-10.08-19.03-1.21.96-2.46,1.9-3.8,2.78-15.87,10.47-34,10.97-40.51,1.11-6.5-9.87,1.11-26.34,16.98-36.8,1.54-1.02,3.1-1.91,4.68-2.74-4.17-5.86-8.51-11.58-12.98-17.2-1.04,1.14-2.14,2.26-3.32,3.35-14.04,12.83-31.87,16.16-39.84,7.44-1.3-1.42-2.22-3.09-2.84-4.91l-29.73,41.85c-.62.88-.57,2.06.12,2.89,42.66,51.14,69.12,116.28,71.44,187.52.03,1.07.77,1.98,1.81,2.23l48.19,11.61c2.52.61,2.4,4.24-.16,4.67l-48.26,8.17c-1.09.18-1.9,1.1-1.97,2.2-4.14,69.56-31.3,132.93-73.96,182.58-.67.78-.77,1.9-.23,2.78l23.56,38.52c1.35,2.21-1.3,4.69-3.42,3.19l-35.31-25.09c-.94-.67-2.21-.56-3.03.24-54.37,53.17-128.29,86.42-209.97,87.99-1.08.02-2.01.76-2.27,1.81l-8.42,34.95c-.61,2.52-4.24,2.4-4.67-.16l-5.93-35.04c-.19-1.09-1.1-1.91-2.21-1.97-77.91-4.35-148.12-37.56-200.09-89.13-.78-.77-1.97-.92-2.91-.34l-36.15,22.11c-2.21,1.35-4.69-1.3-3.19-3.42l24.6-34.62c.63-.89.57-2.08-.13-2.91-44.26-51.99-71.58-118.83-73.48-192-.03-1.07-.77-2-1.81-2.25l-49.08-11.83c-2.52-.61-2.4-4.24.16-4.67l49.37-8.36c1.08-.18,1.89-1.09,1.97-2.18,4.85-71.71,34.16-136.71,79.67-186.72.71-.78.82-1.93.27-2.83l-22.83-37.32c-1.35-2.21,1.3-4.69,3.42-3.19l34.8,24.73c.92.65,2.16.57,2.99-.2,53.63-49.68,124.92-80.56,203.41-82.17,1.08-.02,2.01-.76,2.26-1.81l9.09-37.73c.61-2.52,4.24-2.4,4.67.16l6.4,37.85c.18,1.09,1.1,1.9,2.21,1.97,77.39,4.49,147.13,37.45,198.9,88.57.78.77,1.97.91,2.9.34l44.27-27.07c.63-.39,1.28-.42,1.85-.26-.68-9.03,4.67-20.57,14.73-29.75,1.35-1.23,2.74-2.35,4.15-3.4-5.03-5.12-10.19-10.11-15.48-14.96-.85,1.28-1.74,2.55-2.74,3.79-11.85,14.87-28.95,20.94-38.18,13.58-9.23-7.37-7.09-25.39,4.77-40.24,1.13-1.42,2.32-2.72,3.54-3.97-5.76-4.26-11.65-8.36-17.64-12.32-.63,1.37-1.3,2.75-2.07,4.1-9.38,16.54-25.32,25.22-35.59,19.38-10.27-5.84-10.97-23.97-1.58-40.49.87-1.54,1.82-2.99,2.81-4.38-6.35-3.29-12.78-6.42-19.31-9.37-.4,1.41-.84,2.83-1.37,4.25-6.69,17.81-21.07,28.86-32.13,24.71-11.05-4.16-14.58-21.95-7.89-39.75.59-1.57,1.27-3.07,1.97-4.52-6.75-2.22-13.57-4.25-20.47-6.11-.17,1.34-.37,2.68-.66,4.04-3.82,18.63-16.29,31.8-27.86,29.44-11.57-2.39-17.85-19.41-14.02-38.03.31-1.47.69-2.89,1.09-4.29-6.94-1.1-13.94-2.01-21-2.74.01,1.16.02,2.33-.03,3.52-.85,19-11.12,33.96-22.91,33.43-11.8-.54-20.66-16.38-19.79-35.37.05-1.26.17-2.5.31-3.71-.33,0-.65,0-.98,0-6.7.04-13.36.24-19.98.61.15.91.29,1.83.4,2.77,2.13,18.9-5.67,35.27-17.4,36.6-11.74,1.31-22.97-12.94-25.08-31.84-.11-.99-.18-1.97-.23-2.94-6.86,1.11-13.66,2.41-20.4,3.87.2.63.41,1.26.59,1.9,5.05,18.33-.08,35.72-11.47,38.87-11.39,3.13-24.7-9.19-29.75-27.52-.18-.68-.33-1.35-.49-2.02-6.52,2.17-12.97,4.49-19.34,6.98.16.32.33.63.48.97,7.86,17.32,5.51,35.3-5.24,40.19-10.76,4.87-25.83-5.21-33.69-22.53-.15-.33-.28-.67-.41-1-6.03,3.13-11.96,6.42-17.8,9.85,0,0,.01.02.02.03,10.47,15.88,10.96,34.01,1.11,40.52-9.87,6.5-26.34-1.11-36.8-16.97,0,0,0,0,0,0-5.41,4.01-10.72,8.14-15.92,12.41,12.25,13.92,15.32,31.24,6.77,39.05-8.55,7.81-25.5,3.18-38.25-10.25-4.7,4.78-9.27,9.67-13.73,14.68,13.67,11.78,19.08,27.94,11.99,36.82-7.1,8.89-24.07,7.19-38.59-3.56-3.88,5.42-7.64,10.94-11.25,16.57,14.81,9.52,22.32,24.28,16.8,33.99-5.52,9.71-22.05,10.83-37.82,2.96-2.98,5.94-5.81,11.96-8.49,18.06,15.6,7.18,24.89,20.3,21.03,30.57-3.87,10.28-19.55,14.04-36.04,9.12-2.01,6.32-3.86,12.7-5.56,19.14,16.05,4.8,26.86,16.09,24.69,26.64-2.17,10.57-16.58,16.69-33.25,14.75-1,6.56-1.84,13.16-2.51,19.82,16.16,2.45,28.14,11.75,27.66,22.31-.48,10.6-13.34,18.79-29.72,19.73.02,6.71.2,13.37.55,20,15.99.12,28.9,7.37,30.05,17.71,1.17,10.4-9.93,20.38-25.64,23.99,1.06,6.63,2.28,13.2,3.66,19.72,15.56-2.17,29.12,2.98,31.86,12.89,2.74,9.97-6.41,21.41-21.04,27.49,2.08,6.39,4.31,12.71,6.7,18.95,14.83-4.34,28.73-1.33,32.93,7.92,4.22,9.32-2.82,21.87-16.05,30.18,3.05,6,6.23,11.91,9.57,17.74,13.83-6.39,27.81-5.53,33.35,2.86,5.59,8.48.72,21.83-10.84,32.07,3.93,5.47,8.01,10.83,12.2,16.09,12.59-8.32,26.39-9.59,33.12-2.21,6.83,7.48,4.14,21.37-5.61,33.27,4.72,4.81,9.56,9.5,14.51,14.07,11.13-10.17,24.54-13.58,32.35-7.36,7.95,6.35,7.43,20.59-.44,33.91,5.38,4.03,10.87,7.92,16.46,11.68,9.42-11.94,22.24-17.51,30.98-12.54,8.92,5.07,10.58,19.42,4.71,33.94,5.92,3.15,11.92,6.14,18.01,9,7.42-13.53,19.36-21.22,28.87-17.65,9.72,3.66,13.58,17.88,9.83,33.36,6.31,2.18,12.68,4.21,19.13,6.08,5.14-14.86,15.87-24.61,25.96-22.54,10.31,2.12,16.38,15.92,14.86,32.09,6.55,1.17,13.15,2.17,19.8,3.01,2.6-15.82,11.79-27.46,22.21-26.99,10.68.49,18.91,13.53,19.75,30.08,3.48.07,6.96.1,10.46.08,3.19-.02,6.36-.08,9.53-.17-.13-16.37,7.18-29.69,17.71-30.87,10.8-1.21,21.15,10.79,24.38,27.44,6.62-.89,13.19-1.94,19.7-3.16-3.04-16.51,2.12-31.28,12.52-34.15,10.67-2.93,23.01,7.73,28.68,24.18,6.39-1.91,12.71-3.98,18.96-6.19-6.01-16.14-3.29-32.03,6.71-36.57,10.26-4.66,24.45,4.36,32.54,20.25,6.03-2.9,11.97-5.93,17.83-9.11-8.94-15.23-8.93-31.84.4-38.01,9.59-6.31,25.38.72,35.87,15.68,5.51-3.81,10.93-7.76,16.24-11.83-11.73-13.78-14.56-30.64-6.16-38.33,8.64-7.88,25.82-3.11,38.6,10.6,4.87-4.64,9.62-9.4,14.25-14.27-14.32-11.83-20.1-28.5-12.86-37.57,7.37-9.23,25.39-7.09,40.25,4.78.12.09.23.19.34.29,4.11-5.37,8.09-10.84,11.93-16.42-.03-.02-.07-.03-.1-.05-16.53-9.39-25.21-25.32-19.38-35.6,5.84-10.26,23.97-10.96,40.49-1.57.45.26.88.53,1.31.8,3.25-6.01,6.35-12.12,9.3-18.31-.37-.12-.73-.24-1.1-.38-17.8-6.68-28.86-21.06-24.71-32.12,4.16-11.05,21.96-14.59,39.75-7.89.79.3,1.55.62,2.31.95,2.28-6.51,4.4-13.08,6.35-19.74-.69-.11-1.38-.22-2.08-.36-18.63-3.82-31.8-16.3-29.43-27.87,2.38-11.56,19.4-17.84,38.03-14.02,1.1.23,2.18.5,3.25.78,1.23-6.84,2.27-13.74,3.15-20.69-.96,0-1.91,0-2.89-.04-19-.85-33.96-11.11-33.43-22.91.54-11.79,16.38-20.65,35.37-19.79Z"/><path class="uuid-a0405d64-b31d-4e62-9d25-27c1ec5ba484" d="M398.61,298.88c-55.6,0-100.67,45.07-100.67,100.67s45.07,100.67,100.67,100.67,100.67-45.07,100.67-100.67-45.07-100.67-100.67-100.67ZM398.61,450.35c-28.06,0-50.8-22.74-50.8-50.8s22.74-50.8,50.8-50.8,50.8,22.74,50.8,50.8-22.74,50.8-50.8,50.8Z"/><path class="uuid-a0405d64-b31d-4e62-9d25-27c1ec5ba484" d="M328.16,296.59l-104.65-74.36c-3.11-2.21-7.02,1.43-5.03,4.69l67.28,110.01c1.69,2.77,5.95,1.96,6.45-1.24,1.83-11.79,8.9-29.25,34.33-32.77,3.18-.44,4.23-4.49,1.61-6.34Z"/><path class="uuid-a0405d64-b31d-4e62-9d25-27c1ec5ba484" d="M369.26,518.8l21.42,126.57c.64,3.76,5.98,3.95,6.87.24l30.22-125.37c.77-3.19-2.84-5.57-5.49-3.64-9.64,7.03-26.96,14.33-47.39-1.14-2.56-1.94-6.16.18-5.62,3.34Z"/><path class="uuid-a0405d64-b31d-4e62-9d25-27c1ec5ba484" d="M270.4,369.94l-126.57,21.42c-3.76.64-3.95,5.98-.24,6.87l125.37,30.22c3.19.77,5.57-2.84,3.64-5.49-7.03-9.64-14.33-26.96,1.14-47.39,1.94-2.56-.18-6.16-3.34-5.62Z"/><path class="uuid-a0405d64-b31d-4e62-9d25-27c1ec5ba484" d="M428.81,280.31l-21.42-126.57c-.64-3.76-5.98-3.95-6.87-.24l-30.22,125.37c-.77,3.19,2.84,5.57,5.49,3.64,9.64-7.03,26.96-14.33,47.39,1.14,2.56,1.94,6.16-.18,5.62-3.34Z"/><path class="uuid-a0405d64-b31d-4e62-9d25-27c1ec5ba484" d="M515.69,333.95l74.36-104.65c2.21-3.11-1.43-7.02-4.69-5.03l-110.01,67.28c-2.77,1.69-1.96,5.95,1.24,6.45,11.79,1.83,29.25,8.9,32.77,34.33.44,3.18,4.49,4.23,6.34,1.61Z"/><path class="uuid-a0405d64-b31d-4e62-9d25-27c1ec5ba484" d="M526.83,429.49l126.57-21.42c3.76-.64,3.95-5.98.24-6.87l-125.37-30.22c-3.19-.77-5.57,2.84-3.64,5.49,7.03,9.64,14.33,26.96-1.14,47.39-1.94,2.56.18,6.16,3.34,5.62Z"/><path class="uuid-a0405d64-b31d-4e62-9d25-27c1ec5ba484" d="M478.25,501.39l104.65,74.36c3.11,2.21,7.02-1.43,5.03-4.69l-67.28-110.01c-1.69-2.77-5.95-1.96-6.45,1.24-1.83,11.79-8.9,29.25-34.33,32.77-3.18.44-4.23,4.49-1.61,6.34Z"/><path class="uuid-a0405d64-b31d-4e62-9d25-27c1ec5ba484" d="M287.8,463.17l-74.36,104.65c-2.21,3.11,1.43,7.02,4.69,5.03l110.01-67.28c2.77-1.69,1.96-5.95-1.24-6.45-11.79-1.83-29.25-8.9-32.77-34.33-.44-3.18-4.49-4.23-6.34-1.61Z"/></svg>