<?xml version="1.0" encoding="UTF-8"?>
<svg xmlns="http://www.w3.org/2000/svg" viewBox="0 0 101.73 19.69">
  <defs>
    <style>
      .cls-1 {
        fill: #192225;
      }
    </style>
  </defs>
  <g id="Layer_1" data-name="Layer 1">
    <path class="cls-1" d="m19.7,6.23c-.5-.28-1.02-.5-1.55-.68-.52-.18-1-.27-1.46-.27-.56,0-1.01.11-1.33.34-.32.23-.49.57-.49,1.03,0,.31.12.59.36.85.25.24.57.46.95.65.4.19.8.37,1.22.52.38.14.76.32,1.13.52.38.19.73.44,1.03.74.3.29.54.65.72,1.1.18.43.27.97.27,1.6,0,.67-.17,1.3-.52,1.87s-.86,1.04-1.53,1.4c-.67.35-1.5.52-2.48.52-.5,0-1.02-.05-1.55-.14-.52-.11-1.03-.26-1.53-.47-.5-.22-.99-.49-1.46-.81l1.15-2.03c.31.23.65.43,1.01.61.37.17.74.3,1.12.4.37.1.71.14,1.03.14s.62-.04.94-.13c.32-.1.59-.25.79-.47.22-.22.32-.52.32-.9,0-.26-.09-.5-.27-.72-.17-.22-.4-.41-.7-.59-.29-.18-.61-.34-.95-.47-.41-.16-.83-.34-1.26-.54s-.84-.45-1.22-.74c-.37-.3-.68-.67-.92-1.1-.23-.44-.34-.98-.34-1.62,0-.77.17-1.43.5-2,.35-.56.83-1.01,1.46-1.33.62-.34,1.34-.52,2.16-.56,1.07,0,1.93.13,2.59.38.67.25,1.27.55,1.8.9l-.99,2Z"/>
    <path class="cls-1" d="m25.46,11.38c0,.42.13.82.38,1.21s.58.7.99.94c.42.24.88.36,1.37.36.54,0,1.02-.12,1.44-.36.42-.24.75-.55.99-.94.25-.38.38-.79.38-1.21V3.02h2.57v8.41c0,.97-.24,1.84-.72,2.59-.48.74-1.13,1.33-1.94,1.76-.82.42-1.72.63-2.72.63s-1.88-.21-2.7-.63c-.8-.43-1.45-1.02-1.93-1.76-.48-.76-.72-1.62-.72-2.59V3.02h2.61v8.35Z"/>
    <path class="cls-1" d="m36.72,3.02h2.61v10.73h6.23v2.52h-8.84V3.02Z"/>
    <path class="cls-1" d="m48.26,3.02h2.61v10.73h6.23v2.52h-8.84V3.02Z"/>
    <path class="cls-1" d="m59.79,3.02h2.61v13.25h-2.61V3.02Z"/>
    <path class="cls-1" d="m67.81,3.02l3.87,9.54-1.51-.31,3.51-9.23h3.1l-6.05,13.86-6.05-13.86h3.13Z"/>
    <path class="cls-1" d="m75.77,16.27l5.98-13.77h.14l5.98,13.77h-3.02l-3.82-9.68,1.89-1.3-4.57,10.98h-2.57Zm4.09-4.79h3.98l.92,2.2h-5.71l.81-2.2Z"/>
    <path class="cls-1" d="m101.65,16.81l-10.04-9.07.77.43.05,8.1h-2.65V2.5h.11l9.83,9.04-.58-.25-.05-8.26h2.63v13.79h-.07Z"/>
  </g>
  <g id="Layer_2" data-name="Layer 2">
    <path class="cls-1" d="m1.58,0h1.06v19.69h-1.06V0Z"/>
    <path class="cls-1" d="m4.22,0v.83H0v-.83h4.22Z"/>
    <path class="cls-1" d="m4.22,18.85v.83H0v-.83h4.22Z"/>
  </g>
</svg>