<?xml version="1.0" encoding="utf-8"?>
<!-- Generator: Adobe Illustrator 27.1.0, SVG Export Plug-In . SVG Version: 6.00 Build 0)  -->
<svg version="1.1" xmlns="http://www.w3.org/2000/svg" xmlns:xlink="http://www.w3.org/1999/xlink" x="0px" y="0px"
	 viewBox="0 0 148 48.7" style="enable-background:new 0 0 148 48.7;" xml:space="preserve">
<style type="text/css">
	.st0{fill:#192225;}
</style>
<g id="Layer_1">
	<path class="st0" d="M43.8,23.8c-0.5-0.3-1-0.5-1.5-0.7c-0.5-0.2-1-0.3-1.5-0.3c-0.6,0-1,0.1-1.3,0.3c-0.3,0.2-0.5,0.6-0.5,1
		c0,0.3,0.1,0.6,0.4,0.8c0.3,0.2,0.6,0.5,1,0.6c0.4,0.2,0.8,0.4,1.2,0.5c0.4,0.1,0.8,0.3,1.1,0.5c0.4,0.2,0.7,0.4,1,0.7
		c0.3,0.3,0.5,0.7,0.7,1.1c0.2,0.4,0.3,1,0.3,1.6c0,0.7-0.2,1.3-0.5,1.9s-0.9,1-1.5,1.4c-0.7,0.3-1.5,0.5-2.5,0.5
		c-0.5,0-1,0-1.5-0.1c-0.5-0.1-1-0.3-1.5-0.5c-0.5-0.2-1-0.5-1.5-0.8l1.2-2c0.3,0.2,0.6,0.4,1,0.6c0.4,0.2,0.7,0.3,1.1,0.4
		c0.4,0.1,0.7,0.1,1,0.1s0.6,0,0.9-0.1c0.3-0.1,0.6-0.3,0.8-0.5c0.2-0.2,0.3-0.5,0.3-0.9c0-0.3-0.1-0.5-0.3-0.7
		c-0.2-0.2-0.4-0.4-0.7-0.6c-0.3-0.2-0.6-0.3-1-0.5c-0.4-0.2-0.8-0.3-1.3-0.5s-0.8-0.5-1.2-0.7c-0.4-0.3-0.7-0.7-0.9-1.1
		c-0.2-0.4-0.3-1-0.3-1.6c0-0.8,0.2-1.4,0.5-2c0.3-0.6,0.8-1,1.5-1.3c0.6-0.3,1.3-0.5,2.2-0.6c1.1,0,1.9,0.1,2.6,0.4
		c0.7,0.3,1.3,0.6,1.8,0.9L43.8,23.8z"/>
	<path class="st0" d="M49.5,29c0,0.4,0.1,0.8,0.4,1.2c0.3,0.4,0.6,0.7,1,0.9c0.4,0.2,0.9,0.4,1.4,0.4c0.5,0,1-0.1,1.4-0.4
		c0.4-0.2,0.8-0.6,1-0.9c0.3-0.4,0.4-0.8,0.4-1.2v-8.4h2.6V29c0,1-0.2,1.8-0.7,2.6c-0.5,0.7-1.1,1.3-1.9,1.8
		c-0.8,0.4-1.7,0.6-2.7,0.6c-1,0-1.9-0.2-2.7-0.6c-0.8-0.4-1.4-1-1.9-1.8c-0.5-0.8-0.7-1.6-0.7-2.6v-8.4h2.6V29z"/>
	<path class="st0" d="M60.8,20.6h2.6v10.7h6.2v2.5h-8.8V20.6z"/>
	<path class="st0" d="M72.3,20.6H75v10.7h6.2v2.5h-8.8V20.6z"/>
	<path class="st0" d="M83.9,20.6h2.6v13.2h-2.6V20.6z"/>
	<path class="st0" d="M91.9,20.6l3.9,9.5l-1.5-0.3l3.5-9.2h3.1l-6,13.9l-6-13.9H91.9z"/>
	<path class="st0" d="M99.9,33.8l6-13.8h0.1l6,13.8h-3l-3.8-9.7l1.9-1.3l-4.6,11H99.9z M103.9,29.1h4l0.9,2.2h-5.7L103.9,29.1z"/>
	<path class="st0" d="M125.7,34.4l-10-9.1l0.8,0.4l0.1,8.1h-2.6V20.1h0.1l9.8,9l-0.6-0.3l-0.1-8.3h2.6L125.7,34.4L125.7,34.4z"/>
</g>
<g id="Layer_2">
	<path class="st0" d="M25.7,17.6h1.1v19.7h-1.1V17.6z"/>
	<path class="st0" d="M28.3,17.6v0.8h-4.2v-0.8H28.3z"/>
	<path class="st0" d="M28.3,36.4v0.8h-4.2v-0.8H28.3z"/>
</g>
</svg>
