<svg width="107" height="104" viewBox="0 0 107 104" fill="none" xmlns="http://www.w3.org/2000/svg">
<path d="M29.9016 1.13575L19.3708 7.49375C16.5653 9.18763 16.3155 13.1706 18.8195 15.287C30.6429 25.2806 37.5211 33.5576 45.5982 47.1086C47.0968 49.6226 50.5716 50.0663 52.6015 47.9604C54.1599 46.3436 54.2402 43.8122 52.8416 42.0545C42.7396 29.3589 38.7968 19.7784 37.1902 4.89475C36.8098 1.37082 32.9296 -0.692442 29.9016 1.13575Z" fill="#18B593"/>
<path d="M86.3504 6.43034L75.5368 0.569392C72.6558 -0.992061 69.1089 0.817371 68.5648 4.05583C65.9957 19.3471 62.386 29.4953 54.8575 43.3604C53.4608 45.9327 54.8467 49.1589 57.687 49.8411C59.8676 50.3648 62.082 49.147 62.8801 47.0456C68.6445 31.8668 74.866 23.5907 86.8288 14.6357C89.6611 12.5155 89.4598 8.11561 86.3504 6.43034Z" fill="#18B593"/>
<path d="M106.999 57.5265L106.697 45.2033C106.616 41.9202 103.288 39.7325 100.215 40.8682C85.7067 46.2307 75.1315 48.132 59.3926 48.4698C56.4726 48.5325 54.3695 51.3417 55.1906 54.1526C55.821 56.3105 57.9752 57.6326 60.1901 57.2829C76.1892 54.7571 86.4423 56.0591 100.136 62.0202C103.378 63.4315 107.085 61.07 106.999 57.5265Z" fill="#18B593"/>
<path d="M76.5666 103.275L86.9775 96.7211C89.7512 94.9752 89.9271 90.9883 87.3842 88.9189C75.3774 79.1477 68.3469 71.0004 60.0197 57.6025C58.4748 55.1169 54.9924 54.7382 53.0019 56.8816C51.4737 58.5271 51.4404 61.0596 52.8713 62.7909C63.2072 75.2958 67.327 84.8011 69.2094 99.6522C69.6551 103.168 73.573 105.159 76.5666 103.275Z" fill="#18B593"/>
<path d="M19.3189 96.4353L29.7491 102.958C32.5279 104.696 36.18 103.11 36.9234 99.9119C40.4336 84.8099 44.6642 74.906 53.036 61.536C54.5892 59.0556 53.4056 55.7493 50.613 54.8918C48.469 54.2334 46.1834 55.3111 45.2569 57.3588C38.5644 72.1495 31.8429 80.0226 19.3491 88.216C16.3911 90.1559 16.3198 94.5598 19.3189 96.4353Z" fill="#18B593"/>
<path d="M0.125294 45.8242L0.0002539 58.1505C-0.0330587 61.4344 3.21747 63.7366 6.32765 62.7086C21.0132 57.8544 31.6479 56.3224 47.389 56.5327C50.3094 56.5718 52.5085 53.8374 51.7852 50.9997C51.2299 48.8211 49.1228 47.4249 46.897 47.6972C30.8202 49.6645 20.6183 48.0063 7.1394 41.5721C3.94806 40.0487 0.161247 42.2798 0.125294 45.8242Z" fill="#18B593"/>
<path d="M62.8531 50.9983C62.8531 56.197 58.6507 60.4113 53.4668 60.4113C48.2829 60.4113 44.0805 56.197 44.0805 50.9983C44.0805 45.7996 48.2829 41.5853 53.4668 41.5853C58.6507 41.5853 62.8531 45.7996 62.8531 50.9983Z" fill="#18B593"/>
</svg>
