<svg width="561" height="493" viewBox="0 0 561 493" fill="none" xmlns="http://www.w3.org/2000/svg">
<path fill-rule="evenodd" clip-rule="evenodd" d="M277.618 32.4936C328.017 29.3561 374.708 -11.3492 423.097 3.08723C474.454 18.4092 515.386 61.9626 538.488 110.322C561.763 159.043 569.097 218.129 549.942 268.612C531.876 316.223 473.501 331.811 439.92 370.093C406.639 408.033 403.757 480.275 354.527 491.387C304.423 502.697 267.286 443.307 221.871 419.311C187.137 400.958 148.733 392.567 118.972 366.924C85.5847 338.157 58.4059 303.969 41.0091 263.477C19.3352 213.029 -14.5391 156.369 6.77095 105.766C28.0291 55.2863 90.4583 34.8071 143.331 20.5034C187.609 8.52495 231.837 35.3435 277.618 32.4936Z" fill="#1CC4A0"/>
</svg>
