<svg width="341" height="654" viewBox="0 0 341 654" fill="none" xmlns="http://www.w3.org/2000/svg">
<path fill-rule="evenodd" clip-rule="evenodd" d="M87.8996 21.7704C143.136 33.393 198.729 51.4313 238.404 91.581C274.431 128.039 278.599 182.644 294.892 231.24C309.323 274.283 323.638 315.233 328.52 360.367C334.854 418.916 353.559 480.606 327.585 533.459C299.489 590.629 247.947 652.952 184.254 653.923C117.413 654.942 87.6181 562.925 25.5653 538.062C-27.105 516.958 -93.336 555.164 -140.596 523.763C-190.216 490.793 -216.813 429.765 -226.012 370.904C-235.265 311.696 -210.255 255.093 -191.476 198.184C-170.413 134.35 -166.511 54.2288 -109.675 18.339C-52.8297 -17.5562 22.1106 7.92719 87.8996 21.7704Z" fill="#FFC59D"/>
</svg>
