<svg width="32" height="33" viewBox="0 0 32 33" fill="none" xmlns="http://www.w3.org/2000/svg">
<path d="M15.8115 0.39624C7.16868 0.39624 0.136963 7.51458 0.136963 16.2638C0.136963 25.0131 7.16868 32.1314 15.8115 32.1314C24.4543 32.1314 31.486 25.0131 31.486 16.2638C31.486 7.51458 24.4543 0.39624 15.8115 0.39624ZM26.0795 8.11778C27.8004 10.3357 28.8403 13.1164 28.8675 16.1426C25.6336 15.3903 22.6579 15.2067 19.8996 15.5756C19.5509 14.7529 19.1856 13.9351 18.7899 13.1251C21.504 11.951 23.9257 10.3352 26.0795 8.11778ZM24.2766 6.21229C22.3857 8.19453 20.2372 9.70173 17.5782 10.8104C16.2057 8.32374 14.5994 5.87583 12.737 3.42613C13.7248 3.18353 14.7509 3.04084 15.8115 3.04084C19.0408 3.04084 21.9943 4.23958 24.2766 6.21229ZM10.1504 4.36556C12.0683 6.82001 13.7036 9.24065 15.0894 11.6878C11.8694 12.6443 7.9704 13.1763 3.06956 13.3887C3.94661 9.40433 6.60407 6.10197 10.1504 4.36556ZM2.76015 16.0481C7.9051 15.8509 12.4125 15.3217 16.35 14.0544C16.6865 14.7322 17.0074 15.4133 17.3078 16.0998C12.9018 17.3341 9.09587 20.1746 5.75166 24.6878C3.87773 22.3984 2.74938 19.4624 2.74938 16.2638C2.74938 16.191 2.75895 16.1207 2.76015 16.0481ZM7.63468 26.56C10.7403 22.271 14.2172 19.6315 18.2979 18.5683C19.4579 21.6998 20.2832 24.9621 20.8158 28.474C19.2734 29.1243 17.5839 29.4868 15.8115 29.4868C12.7173 29.4868 9.8751 28.387 7.63468 26.56ZM23.2404 27.1265C22.7084 23.9878 21.9386 21.0054 20.9017 18.1261C23.2714 17.8965 25.8314 18.1206 28.6262 18.8038C27.963 22.2389 25.9828 25.1985 23.2404 27.1265Z" fill="#E5E5E5"/>
<path opacity="0.2" d="M15.8115 0.726815C22.7717 0.726815 28.6699 5.27852 30.7945 11.5971C28.8256 5.11153 22.8635 0.39624 15.8115 0.39624C8.75957 0.39624 2.79751 5.11153 0.828552 11.597C2.95314 5.27852 8.85125 0.726815 15.8115 0.726815Z" fill="white"/>
<path opacity="0.1" d="M15.8116 31.801C9.61353 31.801 4.26806 28.2327 1.67144 22.9892C1.35215 22.3445 1.07443 21.6744 0.841797 20.9826C1.05186 21.6745 1.30722 22.3457 1.60439 22.9927C4.09262 28.4102 9.51202 32.1316 15.8116 32.1316C21.9193 32.1316 27.2036 28.6197 29.7886 23.4658C30.1882 22.669 30.5234 21.8328 30.787 20.9644C30.619 21.464 30.4275 21.9523 30.2137 22.4281C27.7242 27.9691 22.2215 31.801 15.8116 31.801Z" fill="#010101"/>
</svg>
